PathFileType	3	(X/Y/Z)	C:\Users\koon_\Desktop\
DataRate	CameraRate	NumFrames	NumMarkers	Units	OrigDataRate	OrigDataStartFrame	OrigNumFrames
100.0	100.0	12	27	mm	100.0	2264	4526	
Frame#	Time	GM:LFHD			GM:RFHD			GM:LBHD			GM:RBHD			GM:C7			GM:T10			GM:CLAV			GM:STRN			GM:RBAK			GM:LSHO			GM:LUPA			GM:LELB			GM:LFRA			GM:LWRA			GM:LWRB			GM:LFIN			GM:RSHO			GM:RUPA			GM:RELB			GM:RFRA			GM:RWRA			GM:RWRB			GM:RFIN			GM:LASI			GM:RASI			GM:LPSI			GM:RPSI			
		X1	Y1	Z1	X2	Y2	Z2	X3	Y3	Z3	X4	Y4	Z4	X5	Y5	Z5	X6	Y6	Z6	X7	Y7	Z7	X8	Y8	Z8	X9	Y9	Z9	X10	Y10	Z10	X11	Y11	Z11	X12	Y12	Z12	X13	Y13	Z13	X14	Y14	Z14	X15	Y15	Z15	X16	Y16	Z16	X17	Y17	Z17	X18	Y18	Z18	X19	Y19	Z19	X20	Y20	Z20	X21	Y21	Z21	X22	Y22	Z22	X23	Y23	Z23	X24	Y24	Z24	X25	Y25	Z25	X26	Y26	Z26	X27	Y27	Z27	
2264	22.63	83.976685	1582.9583	-67.630424	-69.572159	1581.613	-57.763134	75.313835	1571.6338	-200.09459	-86.53376	1573.182	-172.74258	-40.618584	1422.0011	-240.26103	-55.760071	1227.2462	-306.44977	22.81529	1342.4109	-106.6096	25.157419	1194.9513	-74.328812	-150.91548	1321.9299	-246.95796	140.77527	1387.3892	-247.34056	216.00229	1311.0338	-298.47018	261.44412	1155.1384	-427.03152	369.96982	1057.9122	-394.9852	417.27637	999.72369	-405.81915	416.85013	1012.4764	-470.36298	485.85703	947.13525	-431.18817	-158.84015	1413	-85.452621	-294.68188	1305.1534	37.974884	-375.94571	1251.2216	62.639297	-355.92459	1255.5309	156.53749	-390.70609	1203.7306	276.47415	-446.79401	1186.9418	256.19531	-421.63104	1215.0945	343.19647	139.0069	905.78448	-104.41862	-154.15044	907.41827	-61.008465	39.82497	933.83087	-304.20517	-122.65561	918.9671	-282.36795
2265	22.64	83.165337	1583.1459	-66.841614	-70.401108	1581.7457	-57.666058	75.180008	1571.7318	-199.25758	-86.815277	1573.1753	-172.70296	-39.049809	1421.9907	-240.50174	-53.540119	1227.1991	-306.51245	21.520021	1342.5398	-105.56407	23.705549	1195.0597	-73.263992	-149.27177	1321.5994	-249.1445	142.27791	1388.126	-243.43312	219.49295	1313.4197	-292.95456	271.08514	1158.1898	-420.15222	381.30844	1063.8662	-386.19006	430.0907	1006.7234	-395.98669	430.38956	1019.3983	-460.52551	500.32593	955.6051	-420.1232	-160.9095	1413.8073	-88.904938	-303.91647	1305.5728	26.884119	-386.73193	1251.854	46.684891	-371.26169	1255.016	141.81866	-413.35297	1202.255	258.91217	-467.66068	1185.9437	235.39226	-448.75482	1213.0939	324.04813	138.73978	905.89429	-102.85486	-154.7243	907.48627	-61.802643	41.025467	933.98071	-303.55728	-121.68738	919.09241	-282.92517
2266	22.65	82.324493	1583.2994	-66.029701	-71.332382	1581.8169	-57.643871	75.054726	1571.8274	-198.44562	-87.13752	1573.2056	-172.69035	-37.478077	1421.9435	-240.58769	-51.208523	1227.1901	-306.66843	20.125317	1342.6661	-104.4907	22.143766	1195.1873	-72.230827	-147.53755	1321.3037	-251.56337	143.66095	1388.9563	-239.37585	222.91162	1315.6836	-287.18585	280.47726	1161.3844	-412.94733	392.23837	1069.9104	-376.79367	442.51114	1013.9182	-385.539	443.45258	1026.1714	-450.15555	514.13757	964.01892	-408.28568	-162.8434	1414.6567	-92.343002	-312.08252	1305.764	15.435075	-395.69162	1251.7076	30.717207	-385.67606	1254.5734	126.41805	-434.56714	1200.6554	240.29228	-487.82468	1184.4216	213.81969	-474.14972	1210.8999	303.44455	138.43835	905.94678	-101.39677	-155.22055	907.54126	-62.579296	42.16589	934.20203	-302.97568	-120.71714	919.177	-283.38196
2267	22.66	81.418564	1583.4871	-65.066559	-72.235764	1581.8661	-57.531242	74.818115	1571.9128	-197.677	-87.733917	1573.037	-172.64226	-35.901981	1421.8716	-240.68152	-48.838654	1227.171	-306.85071	18.665483	1342.7639	-103.33565	20.475714	1195.286	-71.269859	-145.66444	1321.0282	-253.7767	144.97441	1389.8469	-235.22722	226.2114	1317.8108	-281.22607	289.56262	1164.6604	-405.33636	402.62155	1076.0289	-366.82352	454.26633	1021.0918	-374.35269	456.04715	1033.0779	-438.94113	527.30731	972.40613	-395.55676	-164.67203	1415.4399	-95.892853	-319.668	1305.8905	3.6926615	-404.65015	1252.0695	13.631125	-399.57782	1253.5532	109.99346	-454.62622	1198.7668	220.55736	-506.33609	1183.1945	191.20627	-497.51682	1208.7577	281.56366	138.14671	906.18652	-99.906898	-155.70503	907.59406	-63.2673	43.190456	934.38715	-302.39767	-119.8073	919.2619	-283.92184
2268	22.67	80.479111	1583.6119	-64.081238	-73.216156	1581.8961	-57.318661	74.612122	1571.9985	-196.72792	-87.820633	1573.1873	-172.6153	-34.415859	1421.8295	-240.68155	-46.352997	1227.1715	-306.97787	17.213923	1342.8679	-102.38136	18.77128	1195.3947	-70.253532	-143.67706	1320.8287	-256.17401	146.13643	1390.822	-231.10426	229.26472	1319.9103	-275.17203	298.27652	1167.7322	-396.98911	412.45975	1082.0616	-356.20322	465.54562	1028.3801	-362.44714	468.18799	1039.8778	-427.16583	539.89972	980.81183	-381.89493	-166.46365	1416.2406	-99.578583	-326.67163	1305.972	-8.3531666	-411.79645	1251.9703	-2.9258366	-412.34665	1252.7367	93.062996	-473.20447	1196.8401	199.93657	-523.10229	1182.0247	167.60655	-519.44159	1206.3751	258.5506	137.72704	906.1532	-98.539398	-156.18942	907.61078	-63.934231	44.300453	934.59418	-301.86963	-118.95995	919.36047	-284.24008
2269	22.68	79.45649	1583.7698	-63.121975	-74.279358	1582.0164	-57.114628	74.331924	1572.0223	-195.73227	-88.214081	1573.1747	-172.44899	-32.922497	1421.8591	-240.63986	-43.985023	1227.1643	-307.07419	15.764438	1342.9039	-101.3325	17.010084	1195.4078	-69.288857	-141.62585	1320.7148	-258.53427	147.1086	1391.8118	-227.06052	232.02869	1322.1658	-269.1875	306.47223	1170.6722	-388.86902	421.8558	1088.006	-345.07547	476.24564	1035.5322	-349.94394	479.78458	1046.6219	-414.58688	551.89093	989.38403	-367.47583	-168.08942	1416.8707	-103.03985	-333.07455	1305.9493	-20.466122	-418.13022	1251.9828	-19.905275	-423.99152	1252.1215	75.650993	-490.47708	1194.7841	178.44432	-538.89252	1180.865	142.946	-539.97321	1203.8584	234.55238	137.48805	906.12854	-97.226616	-156.70152	907.66064	-64.82135	45.316776	934.69525	-301.30066	-118.08977	919.53198	-284.6799
2270	22.69	78.422577	1583.8838	-62.110981	-75.326675	1582.0541	-56.876247	73.95443	1572.0383	-194.78287	-88.967178	1572.9651	-172.18095	-31.497959	1421.9054	-240.47795	-41.581264	1227.2266	-307.13031	14.230201	1342.9246	-100.3293	15.090285	1195.4193	-68.509537	-139.44241	1320.64	-260.90546	148.00888	1392.895	-223.03287	234.59325	1324.5483	-263.33682	314.40527	1173.4091	-379.89545	430.76068	1093.7769	-333.25131	486.34396	1042.5458	-336.66068	490.70114	1053.0687	-401.24866	563.29248	997.87958	-352.23761	-169.65341	1417.3154	-106.52437	-338.90802	1306.0077	-32.975044	-424.05145	1252.2211	-37.005489	-434.76141	1250.9562	57.793362	-506.31827	1192.66	156.22852	-553.47906	1179.2035	118.46009	-558.96429	1201.1206	209.85701	137.07634	905.9314	-96.022858	-157.22232	907.65411	-65.60482	46.324223	934.76654	-300.73102	-117.24104	919.70233	-285.03152
2271	22.7	77.395233	1583.9497	-61.090149	-76.53952	1582.1558	-56.604294	73.515854	1572.0587	-193.7939	-89.179352	1573.1519	-171.97765	-30.040215	1421.9711	-240.33586	-39.138405	1227.2566	-307.1496	12.58215	1342.8834	-99.51992	13.154348	1195.4169	-67.677101	-137.30611	1320.6224	-263.18808	148.7952	1393.9028	-219.00906	236.94818	1326.8516	-257.56366	322.06558	1175.9465	-370.09875	439.08905	1099.3488	-320.87805	495.87241	1049.3862	-322.66705	501.05911	1059.1311	-387.37769	574.01318	1006.4057	-336.30521	-171.16286	1417.6332	-110.09088	-344.11557	1305.9849	-45.618256	-429.09732	1252.639	-54.276325	-444.37582	1249.9362	39.78231	-521.04559	1190.4729	133.53793	-566.37305	1177.4689	93.552193	-576.42517	1198.053	184.68198	136.70764	905.72253	-94.892487	-157.75502	907.59741	-66.381966	47.349827	934.9328	-300.21951	-116.41229	919.89307	-285.47946
2272	22.71	76.239372	1583.9805	-60.122921	-77.650093	1582.2316	-56.235321	73.011787	1572.0211	-192.72664	-89.747162	1573.1849	-171.62869	-28.522387	1422.0614	-240.17941	-36.760761	1227.3129	-307.18423	11.019531	1343.0454	-98.31572	11.217826	1195.395	-66.84462	-135.11174	1320.6002	-265.57999	149.45317	1394.9028	-214.92674	239.17839	1329.1251	-251.72198	329.43521	1178.3414	-360.39642	446.98105	1104.8103	-307.83121	504.67627	1055.9412	-307.90866	510.90955	1064.8339	-372.72772	584.01428	1014.6743	-319.38763	-172.63597	1417.8521	-113.75976	-348.66296	1305.8477	-58.018406	-433.49908	1253.1425	-71.536041	-452.74106	1248.9692	21.739468	-534.38513	1188.0768	110.52005	-577.56921	1175.6538	68.031189	-592.34283	1194.7205	159.05255	136.21953	905.49377	-93.820335	-158.32791	907.47998	-67.261444	48.394939	935.05835	-299.69687	-115.49137	920.02924	-285.90677
2273	22.72	75.032318	1583.9684	-59.009602	-78.876701	1582.3499	-55.837666	72.432884	1572.0415	-191.76756	-90.729942	1573.1489	-171.28978	-27.037361	1422.1273	-240.0697	-34.379425	1227.3464	-307.267	8.8059912	1342.782	-98.28878	9.2446623	1195.335	-66.085953	-132.81348	1320.5358	-268.11127	150.17734	1395.8191	-210.77727	241.28276	1331.2246	-245.72365	336.55048	1180.7006	-350.12161	454.28955	1110.0355	-294.13834	512.8396	1062.2933	-292.3317	520.02423	1070.0295	-357.15317	593.13678	1022.5469	-301.56897	-174.0291	1418.0383	-117.42142	-352.54333	1305.6802	-70.2659	-437.02914	1253.6936	-88.590622	-460.31122	1247.6707	3.5324893	-546.17474	1185.4242	87.2304	-587.64117	1173.7069	42.480373	-606.48682	1191.0834	133.27646	135.84843	905.20081	-92.772209	-158.9536	907.40515	-68.183945	49.354607	935.20496	-299.27579	-114.63002	920.1767	-286.38724
2274	22.73	73.855087	1583.9187	-57.993862	-80.107635	1582.3817	-55.46397	71.767433	1572.0298	-190.71153	-91.065475	1573.411	-170.91235	-25.529072	1422.0782	-239.97159	-31.885937	1227.286	-306.76331	6.8690066	1342.7395	-97.737144	7.0840983	1195.3123	-65.486977	-130.58569	1320.4309	-270.55066	150.73302	1396.6411	-206.54005	243.2979	1333.0726	-239.41028	343.43558	1182.7882	-339.47476	460.97375	1115.0851	-279.78461	520.32526	1068.2863	-276.02667	528.72412	1075.0322	-340.77271	601.46155	1030.0709	-282.71881	-175.36319	1418.0883	-121.13568	-355.79889	1305.3948	-82.419479	-439.79446	1254.146	-105.65393	-466.97202	1246.1511	-14.77636	-556.45117	1182.4913	63.771927	-595.9801	1171.9391	17.31307	-618.90485	1187.1873	107.32917	135.36456	905.02655	-91.688904	-159.58206	907.27747	-69.10984	50.355839	935.25671	-298.97729	-113.75175	920.29395	-286.93115
2275	22.74	72.624474	1583.8046	-57.016884	-81.385414	1582.4241	-55.031658	71.057014	1572.0375	-189.72415	-92.224785	1573.4342	-170.50137	-24.086096	1422.1021	-239.86398	-29.485111	1227.4705	-307.49216	5.0640998	1342.7429	-97.046921	5.2306519	1195.3573	-64.296997	-128.13268	1320.3221	-272.98547	151.21321	1397.3635	-202.32451	245.18634	1334.5875	-232.70941	350.00726	1184.808	-328.36011	467.07449	1119.8553	-264.83456	526.92963	1074.5255	-258.40228	536.89221	1079.9272	-323.53601	608.76282	1037.1377	-262.92224	-176.66913	1418.1423	-124.90081	-358.72189	1304.9795	-95.29496	-441.90314	1254.5144	-122.59306	-472.68228	1244.4747	-33.220779	-565.26617	1179.3195	40.237202	-602.70776	1169.8832	-7.7651052	-629.64197	1183.0573	81.241508	134.88365	904.89801	-90.65744	-160.2999	907.1839	-70.091125	51.352779	935.53473	-299.16663	-112.80232	920.42731	-287.55673
